<svg width="448" height="448" viewBox="0 0 448 448" fill="none" xmlns="http://www.w3.org/2000/svg">
<path d="M185.2 324.5C192.9 306 184.2 284.8 165.6 277.1L136.1 264.9C147.5 260.6 160.4 260.4 172.5 265.4C184.7 270.5 194.1 280 199.2 292.1C204.2 304.3 204.2 317.7 199.1 329.8C188.6 354.9 159.7 366.8 134.5 356.3C122.9 351.5 114.1 342.7 109.1 332.1L137.6 343.9C156.2 351.7 177.5 343 185.2 324.5ZM400 0H48C21.5 0 0 21.5 0 48V208.7L116.6 256.8C128.6 248.6 142.8 244.7 157.3 245.5L212.7 165.3V164.2C212.7 116 252 76.7 300.3 76.7C348.6 76.7 387.9 116 387.9 164.2C387.9 213.4 347 252.9 298.3 251.7L219.3 308C220.9 346.5 190.2 376.8 153.6 376.8C121.8 376.8 95.1 354.1 89.1 324.1L0 287.2V400C0 426.5 21.5 448 48 448H400C426.5 448 448 426.5 448 400V48C448 21.5 426.5 0 400 0ZM300.3 222.5C268.1 222.5 241.9 196.4 241.9 164.2C241.9 132 268.1 105.9 300.3 105.9C332.5 105.9 358.7 132.1 358.7 164.2C358.7 196.3 332.5 222.5 300.3 222.5ZM300.4 207.9C324.6 207.9 344.3 188.3 344.3 164.1C344.3 139.9 324.7 120.3 300.4 120.3C276.2 120.3 256.5 139.9 256.5 164.1C256.5 188.3 276.2 207.9 300.4 207.9Z" fill="white"/>
</svg>
